# xmcd CD database file
#
# Track frame offsets:
#	150
#	19250
#	39522
#	56584
#	75338
#	96348
#	117827
#	138342
#	159295
#	177261
#	198157
#	213498
#
# Disc length: 3125 seconds
#
# Revision: 0
# Processed by: cddbd v1.5.2PL0 Copyright (c) Steve Scherf et al.
# Submitted via: CDex 1.70beta2
#
DISCID=970c330c
DTITLE=Various Artist - Explosion Merengue 2
DYEAR=1900
DGENRE=Merengue
TTITLE0=Karis - Tus Ojos Son
TTITLE1=La Fuerza - Loco Enamorado
TTITLE2=Alessander - Tiene Cara Bonita
TTITLE3=Grupomania - Loco De Amor
TTITLE4=Los Sabrosos Del Merengue - Pendiente
TTITLE5=Grupo 747 - No Se Olvidar
TTITLE6=Arnaldo - Yo La Quiero
TTITLE7=William Marcano - No Hay Mas Nadie
TTITLE8=Victor Roque Y La Gran Manzana - La Conquistare
TTITLE9=Grupo Wao - Me Has Echado Al Olvido
TTITLE10=Gen-T Joven - Nena Linda
TTITLE11=Reynaldo Rey - Ganas De Llorar
EXTD=
EXTT0=
EXTT1=
EXTT2=
EXTT3=
EXTT4=
EXTT5=
EXTT6=
EXTT7=
EXTT8=
EXTT9=
EXTT10=
EXTT11=
PLAYORDER=
